Units are S.I. units (second, meters, Newtons, ...)
Angles are in degrees.
name walk
datarows 48
datacolumns 13
range 0.000000 0.758065
endheader
time exo_pelvis_tx exo_pelvis_ty exo_pelvis_tz exo_pelvis_tilt exo_pelvis_list exo_pelvis_rotation exo_hip_r exo_hip_l exo_knee_r exo_knee_l r_ankle_coupling l_ankle_coupling
0.000000	-0.345526	0.945373	-0.000002	0.000000	0.000000	0.000000	-4.991319	-4.992626	2.132662	2.135478	2.858654	2.857152
0.016129	-0.345474	0.945366	-0.000004	0.000000	0.000000	0.000000	-4.324403	-4.920499	1.073056	1.969982	3.251321	2.950499
0.032258	-0.345422	0.945358	-0.000007	0.000000	0.000000	0.000000	-3.657487	-4.848373	0.013451	1.804486	3.643989	3.043846
0.048387	-0.345371	0.945351	-0.000009	0.000000	0.000000	0.000000	-2.990571	-4.776246	-1.046155	1.638990	4.036656	3.137193
0.064516	-0.345319	0.945343	-0.000012	0.000000	0.000000	0.000000	-2.323655	-4.704120	-2.105760	1.473494	4.429323	3.230539
0.080645	-0.345267	0.945336	-0.000014	0.000000	0.000000	0.000000	-1.656739	-4.631993	-3.165366	1.307998	4.821990	3.323886
0.096774	-0.345216	0.945328	-0.000017	0.000000	0.000000	0.000000	-0.989822	-4.559867	-4.224971	1.142501	5.214658	3.417233
0.112903	-0.345164	0.945321	-0.000019	0.000000	0.000000	0.000000	-0.322906	-4.487740	-5.284577	0.977005	5.607325	3.510580
0.129032	-0.345112	0.945313	-0.000022	0.000000	0.000000	0.000000	0.344010	-4.415614	-6.344182	0.811509	5.999992	3.603927
0.145161	-0.345060	0.945306	-0.000024	0.000000	0.000000	0.000000	1.010926	-4.343487	-7.403788	0.646013	6.392660	3.697274
0.161290	-0.345009	0.945298	-0.000027	0.000000	0.000000	0.000000	1.677842	-4.271361	-8.463393	0.480517	6.785327	3.790620
0.177419	-0.344957	0.945291	-0.000029	0.000000	0.000000	0.000000	2.344758	-4.199234	-9.522999	0.315021	7.177994	3.883967
0.193548	-0.344905	0.945283	-0.000032	0.000000	0.000000	0.000000	3.011674	-4.127107	-10.582605	0.149525	7.570661	3.977314
0.209677	-0.344854	0.945276	-0.000034	0.000000	0.000000	0.000000	3.678590	-4.054981	-11.642210	-0.015971	7.963329	4.070661
0.225806	-0.344802	0.945268	-0.000037	0.000000	0.000000	0.000000	4.345506	-3.982854	-12.701816	-0.181467	8.355996	4.164008
0.241935	-0.344750	0.945261	-0.000039	0.000000	0.000000	0.000000	5.012422	-3.910728	-13.761421	-0.346963	8.748663	4.257355
0.258065	-0.344698	0.945254	-0.000042	0.000000	0.000000	0.000000	5.679339	-3.838601	-14.821027	-0.512460	9.141331	4.350701
0.274194	-0.344647	0.945246	-0.000044	0.000000	0.000000	0.000000	6.346255	-3.766475	-15.880632	-0.677956	9.533998	4.444048
0.290323	-0.344595	0.945239	-0.000047	0.000000	0.000000	0.000000	7.013171	-3.694348	-16.940238	-0.843452	9.926665	4.537395
0.306452	-0.344543	0.945231	-0.000049	0.000000	0.000000	0.000000	7.680087	-3.622222	-17.999843	-1.008948	10.319333	4.630742
0.322581	-0.344492	0.945224	-0.000052	0.000000	0.000000	0.000000	8.347003	-3.550095	-19.059449	-1.174444	10.712000	4.724089
0.338710	-0.344440	0.945216	-0.000054	0.000000	0.000000	0.000000	9.013919	-3.477968	-20.119055	-1.339940	11.104667	4.817436
0.354839	-0.344388	0.945209	-0.000057	0.000000	0.000000	0.000000	9.680835	-3.405842	-21.178660	-1.505436	11.497334	4.910782
0.370968	-0.344336	0.945201	-0.000059	0.000000	0.000000	0.000000	10.347751	-3.333715	-22.238266	-1.670932	11.890002	5.004129
0.387097	-0.344285	0.945194	-0.000062	0.000000	0.000000	0.000000	11.014667	-3.261589	-23.297871	-1.836428	12.282669	5.097476
0.403226	-0.344233	0.945186	-0.000064	0.000000	0.000000	0.000000	11.681583	-3.189462	-24.357477	-2.001924	12.675336	5.190823
0.419355	-0.344181	0.945179	-0.000067	0.000000	0.000000	0.000000	12.348500	-3.117336	-25.417082	-2.167421	13.068004	5.284170
0.435484	-0.344130	0.945171	-0.000069	0.000000	0.000000	0.000000	13.015416	-3.045209	-26.476688	-2.332917	13.460671	5.377517
0.451613	-0.344078	0.945164	-0.000072	0.000000	0.000000	0.000000	13.682332	-2.973083	-27.536293	-2.498413	13.853338	5.470863
0.467742	-0.344026	0.945156	-0.000074	0.000000	0.000000	0.000000	14.349248	-2.900956	-28.595899	-2.663909	14.246005	5.564210
0.483871	-0.343974	0.945149	-0.000077	0.000000	0.000000	0.000000	15.016164	-2.828830	-29.655504	-2.829405	14.638673	5.657557
0.500000	-0.343923	0.945141	-0.000079	0.000000	0.000000	0.000000	15.683080	-2.756703	-30.715110	-2.994901	15.031340	5.750904
0.516129	-0.341230	0.944804	-0.000077	0.000000	0.000000	0.000000	15.902442	-2.999756	-31.241063	-2.911984	15.337953	5.911063
0.532258	-0.338538	0.944466	-0.000075	0.000000	0.000000	0.000000	16.121805	-3.242809	-31.767016	-2.829068	15.644566	6.071222
0.548387	-0.335846	0.944129	-0.000072	0.000000	0.000000	0.000000	16.341167	-3.485862	-32.292970	-2.746151	15.951180	6.231381
0.564516	-0.333154	0.943792	-0.000070	0.000000	0.000000	0.000000	16.560529	-3.728916	-32.818923	-2.663235	16.257793	6.391540
0.580645	-0.330462	0.943454	-0.000068	0.000000	0.000000	0.000000	16.779891	-3.971969	-33.344876	-2.580318	16.564406	6.551699
0.596774	-0.327769	0.943117	-0.000066	0.000000	0.000000	0.000000	16.999254	-4.215022	-33.870829	-2.497401	16.871019	6.711857
0.612903	-0.325077	0.942779	-0.000063	0.000000	0.000000	0.000000	17.218616	-4.458075	-34.396783	-2.414485	17.177633	6.872016
0.629032	-0.322385	0.942442	-0.000061	0.000000	0.000000	0.000000	17.437978	-4.701128	-34.922736	-2.331568	17.484246	7.032175
0.645161	-0.319693	0.942105	-0.000059	0.000000	0.000000	0.000000	17.657340	-4.944181	-35.448689	-2.248651	17.790859	7.192334
0.661290	-0.317000	0.941767	-0.000057	0.000000	0.000000	0.000000	17.876703	-5.187234	-35.974642	-2.165735	18.097472	7.352493
0.677419	-0.314308	0.941430	-0.000054	0.000000	0.000000	0.000000	18.096065	-5.430287	-36.500595	-2.082818	18.404085	7.512652
0.693548	-0.311616	0.941092	-0.000052	0.000000	0.000000	0.000000	18.315427	-5.673341	-37.026549	-1.999902	18.710699	7.672811
0.709677	-0.308924	0.940755	-0.000050	0.000000	0.000000	0.000000	18.534789	-5.916394	-37.552502	-1.916985	19.017312	7.832970
0.725806	-0.306231	0.940418	-0.000048	0.000000	0.000000	0.000000	18.754152	-6.159447	-38.078455	-1.834068	19.323925	7.993129
0.741935	-0.303539	0.940080	-0.000046	0.000000	0.000000	0.000000	18.973514	-6.402500	-38.604408	-1.751152	19.630538	8.153288
0.758065	-0.300847	0.939743	-0.000043	0.000000	0.000000	0.000000	19.192876	-6.645553	-39.130362	-1.668235	19.937152	8.313446
